<svg xmlns="http://www.w3.org/2000/svg" width="55" height="55" viewBox="0 0 55 55"><g transform="translate(-181 -1931.654)"><g transform="translate(181 1931.654)" fill="none" stroke="#327fb2" stroke-width="1"><circle cx="27.5" cy="27.5" r="27.5" stroke="none"/><circle cx="27.5" cy="27.5" r="27" fill="none"/></g><circle cx="23.5" cy="23.5" r="23.5" transform="translate(185 1935.654)" fill="#d0d0e4"/><g transform="translate(140.579 1934.066)"><g transform="translate(54.628 8.638)"><g transform="translate(0 3.84)"><path d="M62.572,71.771H77.667a.475.475,0,0,1,.348.144L80.78,74.68a.476.476,0,0,1,.144.348V95.7a.493.493,0,0,1-.492.492H62.572a.493.493,0,0,1-.492-.492V72.263A.493.493,0,0,1,62.572,71.771Z" transform="translate(-62.08 -71.771)" fill="#eceff1" fill-rule="evenodd"/><path d="M62.572,71.771h.9V96.194h-.9a.493.493,0,0,1-.492-.492V72.263A.493.493,0,0,1,62.572,71.771Z" transform="translate(-62.08 -71.771)" fill="#d1d1d6" fill-rule="evenodd"/><path d="M292.449,72.394a.493.493,0,0,1,.144.1l2.765,2.765a.494.494,0,0,1,.1.144H292.7a.247.247,0,0,1-.246-.246Z" transform="translate(-276.658 -72.351)" fill="#a79ba7" fill-rule="evenodd"/></g><g transform="translate(4.387 12.591)"><path d="M147.481,201.033a.8.8,0,1,0,0-1.6h-2.746a2.485,2.485,0,0,0-2.482,2.485l0,14.5c0,.278-.531.4-.739.4H126.879a.8.8,0,0,0,0,1.6h14.633a2.2,2.2,0,0,0,2.335-2v-14.5a.894.894,0,0,1,.889-.889Z" transform="translate(-126.081 -199.437)" fill="#9facba" fill-rule="evenodd"/><path d="M147.848,201.4a.8.8,0,0,0,.206-1.569.8.8,0,0,1-.771,1h-2.746a.894.894,0,0,0-.889.889v14.5a2.2,2.2,0,0,1-2.335,2H126.681a.8.8,0,0,1-.206-.027.8.8,0,0,0,.771.592h14.633a2.2,2.2,0,0,0,2.335-2v-14.5a.894.894,0,0,1,.889-.889Z" transform="translate(-126.448 -199.804)" fill="#8d9ca8" fill-rule="evenodd"/><path d="M406.7,201.034a.8.8,0,1,0,0-1.6h-2.324v1.6H406.7Z" transform="translate(-385.303 -199.438)" fill="#8d9ca8" fill-rule="evenodd"/><path d="M406.7,201.4a.8.8,0,0,0,.206-1.569.8.8,0,0,1-.771,1h-1.759v.564H406.7Z" transform="translate(-385.302 -199.805)" fill="#8192a5" fill-rule="evenodd"/><circle cx="2.36" cy="2.36" r="2.36" transform="translate(14.483 20.241) rotate(-88.108)" fill="#8192a5"/><ellipse cx="1.1" cy="1.1" rx="1.1" ry="1.1" transform="translate(15.785 16.946) rotate(-3.151)" fill="#eceff1"/></g><g transform="translate(5.573 0)"><circle cx="3.844" cy="3.844" r="3.844" transform="translate(0 7.689) rotate(-89.828)" fill="#ffc338"/><path d="M195.062,15.887a3.844,3.844,0,1,1,0,7.689c-.111,0-.221,0-.329-.014a3.844,3.844,0,0,0,0-7.66c.109-.009.218-.014.329-.014Z" transform="translate(-191.213 -15.878)" fill="#f5b829" fill-rule="evenodd"/></g><g transform="translate(8.601 14.753)"><path d="M193.738,230.976H187.89a.333.333,0,0,0-.332.332v5.746a.435.435,0,0,0,.434.434h5.644a.435.435,0,0,0,.434-.434v-5.746A.333.333,0,0,0,193.738,230.976Z" transform="translate(-187.558 -230.976)" fill="#e3a76f" fill-rule="evenodd"/><path d="M265.139,230.976h-.823a.333.333,0,0,1,.332.332v5.746a.435.435,0,0,1-.434.434h.823a.435.435,0,0,0,.434-.434v-5.746A.333.333,0,0,0,265.139,230.976Z" transform="translate(-258.96 -230.976)" fill="#c48958" fill-rule="evenodd"/><path d="M221.335,230.976h-2.18v2.214a.444.444,0,0,0,.443.443h1.295a.444.444,0,0,0,.443-.443v-2.214Z" transform="translate(-216.989 -230.976)" fill="#f2d1a5" fill-rule="evenodd"/><path d="M238.3,230.976h-.489v2.214a.444.444,0,0,1-.443.443h.489a.444.444,0,0,0,.443-.443Z" transform="translate(-233.951 -230.976)" fill="#ecba78" fill-rule="evenodd"/></g><g transform="translate(12.116 21.782)"><path d="M245.013,333.529h-5.848a.333.333,0,0,0-.332.332v5.746a.435.435,0,0,0,.434.434h5.644a.435.435,0,0,0,.434-.434v-5.746A.333.333,0,0,0,245.013,333.529Z" transform="translate(-238.833 -333.529)" fill="#e3a76f" fill-rule="evenodd"/><path d="M316.414,333.529h-.823a.333.333,0,0,1,.332.332v5.746a.435.435,0,0,1-.434.434h.823a.435.435,0,0,0,.434-.434v-5.746A.333.333,0,0,0,316.414,333.529Z" transform="translate(-310.235 -333.529)" fill="#c48958" fill-rule="evenodd"/><path d="M272.61,333.529h-2.18v2.214a.444.444,0,0,0,.443.443h1.295a.444.444,0,0,0,.443-.443v-2.214Z" transform="translate(-268.264 -333.529)" fill="#f2d1a5" fill-rule="evenodd"/><path d="M289.573,333.529h-.489v2.214a.444.444,0,0,1-.443.443h.489a.444.444,0,0,0,.443-.443v-2.214Z" transform="translate(-285.227 -333.529)" fill="#ecba78" fill-rule="evenodd"/></g><g transform="translate(5.086 21.782)"><path d="M142.462,333.529h-5.848a.333.333,0,0,0-.332.332v5.746a.435.435,0,0,0,.434.434h5.644a.435.435,0,0,0,.434-.434v-5.746A.333.333,0,0,0,142.462,333.529Z" transform="translate(-136.282 -333.529)" fill="#e3a76f" fill-rule="evenodd"/><path d="M213.863,333.529h-.823a.333.333,0,0,1,.332.332v5.746a.435.435,0,0,1-.434.434h.823a.435.435,0,0,0,.434-.434v-5.746A.333.333,0,0,0,213.863,333.529Z" transform="translate(-207.684 -333.529)" fill="#c48958" fill-rule="evenodd"/><path d="M170.059,333.529h-2.18v2.214a.444.444,0,0,0,.443.443h1.295a.444.444,0,0,0,.443-.443v-2.214Z" transform="translate(-165.713 -333.529)" fill="#f2d1a5" fill-rule="evenodd"/><path d="M187.021,333.529h-.489v2.214a.444.444,0,0,1-.443.443h.489a.444.444,0,0,0,.443-.443v-2.214Z" transform="translate(-182.675 -333.529)" fill="#ecba78" fill-rule="evenodd"/></g></g><path d="M64.691,13.624a.187.187,0,0,0,.042-.166c-.012-.1-.039-.319-.767-.439-1.315-.216-1.546-.973-1.567-1.405a1.466,1.466,0,0,1,1.1-1.477V10.06a.548.548,0,1,1,1.1,0v.07a1.709,1.709,0,0,1,1.089.982.548.548,0,0,1-1.011.425.676.676,0,0,0-.8-.365c-.094.021-.4.113-.387.39,0,.067.013.272.65.376,1.022.168,1.587.635,1.679,1.389a1.277,1.277,0,0,1-.3,1.016,1.756,1.756,0,0,1-.922.525v.058a.548.548,0,0,1-1.1,0v-.068a1.665,1.665,0,0,1-1.217-1.2.548.548,0,0,1,1.064-.265.692.692,0,0,0,.738.439.893.893,0,0,0,.6-.209Zm-.273-5.509h-.734a4.4,4.4,0,0,0-3.989,3.815H55.121a1.042,1.042,0,0,0-1.041,1.041V36.409a1.042,1.042,0,0,0,1.041,1.041H72.98a1.042,1.042,0,0,0,1.041-1.041V15.735a1.02,1.02,0,0,0-.3-.736l-2.765-2.765a1.02,1.02,0,0,0-.736-.3H68.406a4.4,4.4,0,0,0-3.988-3.815Zm11.539,31.54a.466.466,0,1,1,.466-.466A.466.466,0,0,1,75.956,39.655Zm0-2.028a1.562,1.562,0,1,0,1.562,1.563A1.564,1.564,0,0,0,75.956,37.627Zm4.459-15.35H78.64v-.5h1.776a.25.25,0,0,1,0,.5Zm-4.183,1.437v12.58c-.091-.008-.183-.013-.276-.013-.075,0-.149,0-.222.009l0-12.576a1.937,1.937,0,0,1,1.807-1.932v.5A1.439,1.439,0,0,0,76.232,23.714ZM75.956,41a1.812,1.812,0,1,0-1.812-1.812A1.814,1.814,0,0,0,75.956,41ZM59.813,39.662a.249.249,0,1,1,0-.5H73.048c0,.009,0,.017,0,.026a2.907,2.907,0,0,0,.039.473H59.813Zm20.6-18.981a1.346,1.346,0,1,1,0,2.692H77.67a.345.345,0,0,0-.341.341V36.626a2.908,2.908,0,1,1-3.82,4.133h-13.7a1.346,1.346,0,1,1,0-2.692h13.46A2.926,2.926,0,0,1,74.637,36.6l0-12.885a3.035,3.035,0,0,1,3.03-3.033h2.746ZM58.578,21a.548.548,0,0,1-.548.548H57.4a.548.548,0,1,1,0-1.1h.626A.548.548,0,0,1,58.578,21Zm0,2.726a.548.548,0,0,1-.548.549H57.4a.549.549,0,0,1,0-1.1h.626A.548.548,0,0,1,58.578,23.723Zm-1.723-5.452a.548.548,0,0,1,.548-.549h.626a.548.548,0,1,1,0,1.1H57.4A.548.548,0,0,1,56.855,18.271Zm3.1,0a.548.548,0,0,1,.548-.549H70.7a.548.548,0,1,1,0,1.1H60.5A.548.548,0,0,1,59.953,18.271Zm0,2.726a.548.548,0,0,1,.548-.549H70.7a.548.548,0,1,1,0,1.1H60.5A.548.548,0,0,1,59.953,21Zm7.038,15.357V30.421h1.241V32.74a.548.548,0,0,0,.548.549h2.354a.548.548,0,0,0,.548-.549V30.421h1.241v5.933Zm2.338-5.933h1.257v1.771H69.329Zm-2.258-7.03v1.771H65.815V23.391Zm-.629,5.933H63.477V23.391h1.241v2.32a.548.548,0,0,0,.548.548H67.62a.548.548,0,0,0,.548-.548v-2.32h1.241v5.933Zm-4.691,3.965h2.354a.548.548,0,0,0,.548-.549V30.421h1.241v5.933H59.962V30.421H61.2V32.74a.548.548,0,0,0,.548.549Zm1.805-2.868v1.771H62.3V30.421Zm-8.38-17.394V36.353h3.689V29.872a.548.548,0,0,1,.548-.549H62.38V24.271H60.5a.549.549,0,0,1,0-1.1H62.38v-.331a.548.548,0,0,1,.548-.549h7.029a.548.548,0,0,1,.548.549v.331H70.7a.549.549,0,0,1,0,1.1h-.191v5.053h2.418V16.08H70.665a.8.8,0,0,1-.795-.795V13.026H68.409a4.392,4.392,0,0,1-8.718,0ZM64.05,9.2a3.3,3.3,0,1,0,3.3,3.3A3.3,3.3,0,0,0,64.05,9.2ZM70.967,13.8l1.181,1.181H70.967Z" transform="translate(0)" fill="#242222" fill-rule="evenodd"/></g></g></svg>